<svg id="Capa_1" data-name="Capa 1" xmlns="http://www.w3.org/2000/svg" viewBox="0 0 535 220"><defs><style>.cls-1{fill:#e2e2e3;}</style></defs><path class="cls-1" d="M11.68,49.91h21l34.51,59.71H68.4l34.5-59.71H124V162.72H102.9V107.1l1.26-18.91H102.9L74.23,138.77H61.46L32.63,88.19H31.37l1.26,18.91v55.62h-21Z"/><path class="cls-1" d="M180.73,83a42.89,42.89,0,0,1,16.46,3.07,38.22,38.22,0,0,1,21.43,21.5,46.12,46.12,0,0,1,0,33.09,38.14,38.14,0,0,1-21.43,21.5,45.52,45.52,0,0,1-32.92,0,38.14,38.14,0,0,1-21.43-21.5,46.12,46.12,0,0,1,0-33.09,38.22,38.22,0,0,1,21.43-21.5A42.85,42.85,0,0,1,180.73,83Zm0,63.17a20.18,20.18,0,0,0,7.64-1.49,19.53,19.53,0,0,0,6.54-4.34,20.5,20.5,0,0,0,4.49-6.93,27,27,0,0,0,0-18.59,20.5,20.5,0,0,0-4.49-6.93,19.5,19.5,0,0,0-6.54-4.33,20.19,20.19,0,0,0-7.64-1.5,20,20,0,0,0-7.72,1.5,19.68,19.68,0,0,0-6.46,4.33,20.5,20.5,0,0,0-4.49,6.93,26.85,26.85,0,0,0,0,18.59,20.5,20.5,0,0,0,4.49,6.93,19.71,19.71,0,0,0,6.46,4.34A20,20,0,0,0,180.73,146.17Z"/><path class="cls-1" d="M271.48,83a42.92,42.92,0,0,1,16.46,3.07,38.22,38.22,0,0,1,21.43,21.5,46.12,46.12,0,0,1,0,33.09,38.14,38.14,0,0,1-21.43,21.5,45.55,45.55,0,0,1-32.93,0,38.14,38.14,0,0,1-21.43-21.5,46.12,46.12,0,0,1,0-33.09A38.22,38.22,0,0,1,255,86.07,42.94,42.94,0,0,1,271.48,83Zm0,63.17a20.18,20.18,0,0,0,7.64-1.49,19.73,19.73,0,0,0,6.54-4.34,20.65,20.65,0,0,0,4.49-6.93,27,27,0,0,0,0-18.59,20.65,20.65,0,0,0-4.49-6.93,19.7,19.7,0,0,0-6.54-4.33,20.19,20.19,0,0,0-7.64-1.5,19.93,19.93,0,0,0-7.72,1.5,19.68,19.68,0,0,0-6.46,4.33,20.5,20.5,0,0,0-4.49,6.93,26.85,26.85,0,0,0,0,18.59,20.5,20.5,0,0,0,4.49,6.93,19.71,19.71,0,0,0,6.46,4.34A19.92,19.92,0,0,0,271.48,146.17Z"/><path class="cls-1" d="M361.28,199.27a46,46,0,0,1-14.58-2.13,41.71,41.71,0,0,1-11.1-5.51,37.19,37.19,0,0,1-7.88-7.49,29.33,29.33,0,0,1-4.57-8.19l19.69-7.88a18.74,18.74,0,0,0,7.25,9.53A19.61,19.61,0,0,0,361.28,181q9.77,0,15.44-6.34t5.67-17.45v-5.36h-1.26a25.19,25.19,0,0,1-9.53,8,31.11,31.11,0,0,1-14,2.92,33.86,33.86,0,0,1-13.47-2.81,35.2,35.2,0,0,1-11.58-8,43.23,43.23,0,0,1-8.19-45.39,41,41,0,0,1,8.19-12.64,35.35,35.35,0,0,1,11.58-8A33.84,33.84,0,0,1,357.65,83a31.25,31.25,0,0,1,14,2.91,25.28,25.28,0,0,1,9.53,8h1.26V85.52h19.69V157.2a48.87,48.87,0,0,1-3,17.57A38,38,0,0,1,390.74,188a36.1,36.1,0,0,1-12.84,8.35A45.52,45.52,0,0,1,361.28,199.27Zm.78-55.15a21.08,21.08,0,0,0,7.49-1.39,19,19,0,0,0,6.54-4.09,20.59,20.59,0,0,0,4.57-6.66,22.37,22.37,0,0,0,1.73-9,22.92,22.92,0,0,0-1.73-9.12,20.27,20.27,0,0,0-4.57-6.73,19,19,0,0,0-6.54-4.1,21.08,21.08,0,0,0-7.49-1.39,20.44,20.44,0,0,0-7.4,1.39,18.78,18.78,0,0,0-6.46,4.17,21.51,21.51,0,0,0-4.57,6.74,24.51,24.51,0,0,0,0,18.09,20.59,20.59,0,0,0,4.57,6.66,19.17,19.17,0,0,0,6.46,4.09A20.44,20.44,0,0,0,362.06,144.12Z"/><path class="cls-1" d="M419.73,162.72V49.91h20.64V162.72Z"/><path class="cls-1" d="M530.33,144.12a43.32,43.32,0,0,1-14.42,15.29q-9.06,5.82-22.13,5.83a42.49,42.49,0,0,1-16.31-3.08,38.87,38.87,0,0,1-21.59-21.58,43.11,43.11,0,0,1-3.07-16.46,42.18,42.18,0,0,1,3-15.84,40,40,0,0,1,21-22A38.83,38.83,0,0,1,493,83a42,42,0,0,1,16.54,3.07,33.65,33.65,0,0,1,12.13,8.51,36.49,36.49,0,0,1,7.41,12.84,49.54,49.54,0,0,1,2.52,16.07v1.89a10,10,0,0,0-.16,1.73,8.48,8.48,0,0,0-.16,1.73H473.14a21.63,21.63,0,0,0,2.6,8.12,19.6,19.6,0,0,0,4.88,5.67,19.15,19.15,0,0,0,6.38,3.31,25,25,0,0,0,7.09,1q7.1,0,11.74-3.23a23.59,23.59,0,0,0,7.32-8.11Zm-18.75-29.93a13.46,13.46,0,0,0-1.34-4.57,16.17,16.17,0,0,0-3.47-4.72,18.18,18.18,0,0,0-5.67-3.63A21,21,0,0,0,493,99.85a18.91,18.91,0,0,0-11.66,3.78,20,20,0,0,0-7.09,10.56Z"/></svg>